# xmcd
# 
# Track frame offsets:
#     150
#     13901
#     30510
#     48351
#     63292
#     85004
#     95906
#     125645
#     137232
#     161408
#     171190
#     189442
# 
# Disc length: 2725
# 
# Revision: 3
# Processed by: cddbd v1.5.2PL0 Copyright (c) Steve Scherf et al.
# Submitted via: fre:ac v1.0.31
# 
DISCID=9e0aa30c
DTITLE=Christmas - The Blind Boys Of Alabama Go Tell It On The Mountain
DYEAR=2003
DGENRE=Christmas
TTITLE0=Last Month Of The Year
TTITLE1=I Pray On Christmas (featuring Solomon Burke)
TTITLE2=Go Tell It On The Mountain (featuring Tom Waits)
TTITLE3=Little Drummer Boy (featuring Michael Franti)
TTITLE4=In The Bleak Midwinter (featuring Chrissie Hynde with Richard Thompson)
TTITLE5=Joy To The World (featuring Aaron Neville)
TTITLE6=Born In Bethlehem (featuring Mavis Staples)
TTITLE7=The Christmas Song (featuring Shelby Lynne)
TTITLE8=Away In A Manger (featuring George Clinton with Robert Randolph)
TTITLE9=Oh Come All Ye Faithful (featuring Me'shell Ndegéocello)
TTITLE10=White Christmas (featuring Les McCann)
TTITLE11=Silent Night
EXTD=
EXTT0=
EXTT1=
EXTT2=
EXTT3=
EXTT4=
EXTT5=
EXTT6=
EXTT7=
EXTT8=
EXTT9=
EXTT10=
EXTT11=
PLAYORDER=
